# xmcd CD database file
#
# Track frame offsets:
#	150
#	14345
#	27035
#	42122
#	60329
#	74858
#	90502
#	106090
#	118780
#	135538
#	151851
#
# Disc length: 2296 seconds
#
# Revision: 0
# Processed by: cddbd v1.5.2PL0 Copyright (c) Steve Scherf et al.
# Submitted via: CDex 1.51
#
DISCID=8408f60b
DTITLE=Maud and Friends - Our Music's Gonna Win
DYEAR=1900
DGENRE=Country
TTITLE0=Our Music's Gonna Win
TTITLE1=Everywhere's My Home
TTITLE2=A Gal Out On The Prowl
TTITLE3=Not Goulty Of Not Loving You
TTITLE4=Alabama Girl
TTITLE5=Song For Joe
TTITLE6=Fragile Heart
TTITLE7=A Hell Of A Hullabaloo
TTITLE8=Crazy Fool
TTITLE9=Last Hope Saloon
TTITLE10=Jugendliebe
EXTD=
EXTT0=
EXTT1=
EXTT2=
EXTT3=
EXTT4=
EXTT5=
EXTT6=
EXTT7=
EXTT8=
EXTT9=
EXTT10=
PLAYORDER=
